# xmcd
#
# Track frame offsets: 
#        150
#        12298
#        29008
#        43581
#        57959
#        75891
#        93721
#        111451
#        123846
#        135144
#        151064
#
# Disc length: 2235 seconds
#
# Revision: 0
# Processed by: cddbd v1.5.2PL0 Copyright (c) Steve Scherf et al.
# Submitted via: ExactAudioCopyFreeDBPlugin 1.0
#
DISCID=7f08b90b
DTITLE=Heidi Feek - The Only
DYEAR=2014
DGENRE=Country
TTITLE0=I Like The Way
TTITLE1=Somebody Someday
TTITLE2=57 Bel Air
TTITLE3=The Only
TTITLE4=Berlin
TTITLE5=One Night With You
TTITLE6=Pretty Boy
TTITLE7=Take It Slow
TTITLE8=There Lives A Fool
TTITLE9=I Didn't Know About You
TTITLE10=Heartbreak Hotel
EXTD=
EXTT0=
EXTT1=
EXTT2=
EXTT3=
EXTT4=
EXTT5=
EXTT6=
EXTT7=
EXTT8=
EXTT9=
EXTT10=
PLAYORDER=
